<svg xmlns="http://www.w3.org/2000/svg" viewBox="0 0 240.87 276.39"><defs><style>.cls-1{fill:none;stroke-width:6px;}.cls-1,.cls-2{stroke:#fff;stroke-miterlimit:10;}.cls-2{fill:#fff;}</style></defs><title>Layer 5</title><g id="Layer_2" data-name="Layer 2"><g id="Layer_5" data-name="Layer 5"><g id="Layer_2-2" data-name="Layer 2"><path class="cls-1" d="M217.68,144.19H188.6a10,10,0,0,0,4.23-2.36l0-.05h0l1.6-1.69a11.36,11.36,0,0,0,4.36-2.7,7.43,7.43,0,0,0,1.07-1.45l.92-1.63a8.94,8.94,0,0,0,2.75-2.32,5.62,5.62,0,0,0,.95-2l.29-1.22a11.33,11.33,0,0,0,2.32-2,8.46,8.46,0,0,0,1.73-3l.58-1.85a11.82,11.82,0,0,0,1.3-1.36,10,10,0,0,0,2.05-4.15l.54-2.31a10.28,10.28,0,0,0,2-5.27l.17-1.94a11.53,11.53,0,0,0,2.23-6.7l0-2.05a12,12,0,0,0,1.63-6.24l-.06-2.25a12,12,0,0,0,1-6.34l-.23-2.1a12.72,12.72,0,0,0,.34-9L220,70.69c1-2.89,1.66-7.08-.38-10.95l-.77-1.46a20.05,20.05,0,0,0,.23-3.66,14.74,14.74,0,0,0-.92-4.74l-1-2.67a16.06,16.06,0,0,0-2-8.19l-.94-1.63,0-.63c.1-3.47-.47-8.28-3.81-11.5l-1.05-1a19.85,19.85,0,0,0-4.67-11.57l-2-2.22-1.05-1.14.24,1.53.47,3c1.81,11.48,1.53,39.48-40.1,51.33-7.45,2.12-11.61,5-14.36,9.81l-.24.42c-2.12,3.75-3.65,6.46-7.61,7.77a18.65,18.65,0,0,1-2.07.57,2.73,2.73,0,0,0-1.37-.75c.3-.61-9.15-25.44-9.91-26.62-.51-.78-.58-1.75-.72-3.5-.11-1.35-.24-3-.63-5.3a10.58,10.58,0,0,0-2.8-5.9c2.26-1.63,2-5.1,2-5.26l-.09-1-.45.42a5.35,5.35,0,0,0,0-1.69l-.15-.68a10.81,10.81,0,0,0-.69-5.37s-4.43,4.82-7,4.82a17.19,17.19,0,0,1-2.91-.28,35.11,35.11,0,0,0-6.13-.58,23.52,23.52,0,0,0-11.28,2.68l-.32.17c-.6-.65-3.45-2.59-3.88-1.67-.61-.49-4.71.71-4.58.8a6.92,6.92,0,0,1,.68.48c-.79.12-1.79,2.25-1.58,2.31a3.1,3.1,0,0,0-1.59,2.32l-.1.7.68-.18a2.79,2.79,0,0,1,.66-.1,1.35,1.35,0,0,1,1.2.65,13.23,13.23,0,0,0-9,6.28c-1.41,2.5,1.67,5.1,3.37,4.09l.28.84.55,1.64c.06.16,1.42,4.05,7.17,4.15h.69a28.64,28.64,0,0,0,5.69-.52c.49-.09.91-.17,1.34-.22a10.09,10.09,0,0,1,1-.07c1.53,0,2.22.53,2.47,1.87a2.12,2.12,0,0,1-.06.57c-.18.29-.37.61-.56,1l0,.09a6.09,6.09,0,0,1-3.08,1.34l-1.81.29-.25.8-.31,3.12s-8,17.86-8.35,18.2a18.29,18.29,0,0,1-1.79-.51c-4-1.31-5.49-4-7.62-7.77L76.34,75C73.6,70.1,69.43,67.26,62,65.14,20.35,53.29,20.07,25.29,21.88,13.81l.47-3,.24-1.53-1.05,1.14-2,2.22a19.79,19.79,0,0,0-4.67,11.57l-1.06,1c-3.33,3.22-3.91,8-3.8,11.5,0,.2,0,.42,0,.63L9.07,39a16.06,16.06,0,0,0-2,8.19L6,49.88a15.3,15.3,0,0,0-.92,4.74,20.16,20.16,0,0,0,.23,3.66l-.76,1.46c-2.05,3.87-1.36,8.07-.39,10.95l-.51,1.48a12.72,12.72,0,0,0,.34,9l-.24,2.1a12,12,0,0,0,1.05,6.34l-.07,2.25a12,12,0,0,0,1.64,6.24v2.05a11.54,11.54,0,0,0,2.24,6.7l.17,1.94a10.26,10.26,0,0,0,2,5.27l.54,2.31a10.13,10.13,0,0,0,2.06,4.15,11.72,11.72,0,0,0,1.29,1.36l.59,1.85a8.17,8.17,0,0,0,1.73,3,11.33,11.33,0,0,0,2.32,2l.29,1.22a5.62,5.62,0,0,0,.95,2,8.67,8.67,0,0,0,2.75,2.31l.91,1.64a7.38,7.38,0,0,0,1.08,1.45,11.28,11.28,0,0,0,4.36,2.7l1.59,1.69h0l0,0a10.39,10.39,0,0,0,4.65,2.5l.5,1a4.52,4.52,0,0,0,.32.52c1.14,1.56,3.74,2.77,7.16,3.33l2.26,1.46c2.15,1.37,5.4,2.1,9.4,2.1a39.33,39.33,0,0,0,12.53-2.17A33.51,33.51,0,0,0,73,148.48a32.68,32.68,0,0,0-2.42,6.89c-.86,1.64-3.61,5.68-2.74,6a10,10,0,0,0-.47,1c-.48,1.14-.61,5,.06,5.07-.56.92-1.9,4.27-1.42,4.37a9.25,9.25,0,0,0-.63,1.17,8.63,8.63,0,0,0-1.67,2.81,20.61,20.61,0,0,0-.74,2.4l-.2.21a8.61,8.61,0,0,0-2.09,3.29,10.8,10.8,0,0,0-3.26,4,8,8,0,0,0-4,1.17c-1.32-1.09-2.6-2.23-3.84-3.37a5.51,5.51,0,0,0-3.46-1.68,3.16,3.16,0,0,0-2.53,1.33,22.26,22.26,0,0,1-2,1.73A120.63,120.63,0,0,0,20,164.33L18,163s4.19,8.09,4.88,10.24c.35,1.06.58,2,.73,2.66a27.91,27.91,0,0,0-9.36-1.82,16.37,16.37,0,0,0-2.57.18l-.84.12-1.14.16.94.68.68.49a86.1,86.1,0,0,1,17.15,15.75c.91,1.1,1.67,2.08,2.34,2.94.53.68,1,1.27,1.4,1.77a10,10,0,0,0,1.32,1.38,2.36,2.36,0,0,0,1.5.62,1.78,1.78,0,0,0,.75-.16,2.11,2.11,0,0,0,.7-.51l3.93-3c.54.5,1.1,1,1.69,1.52,0,.23-.09.45-.14.69s-.13.57-.15.73a2,2,0,0,0,.69,1.81,3,3,0,0,0,.08,2.05A2.74,2.74,0,0,0,45.24,203h.19a0,0,0,0,0,0,0,3.2,3.2,0,0,0,2.94,1.76h.24a2.31,2.31,0,0,0,.51.76,5.29,5.29,0,0,0,3.69,1.33,4.75,4.75,0,0,0,2.33-.56l.49-.28A104.5,104.5,0,0,0,72,214.28l2.53,1c-2.53,5-4.7,8.45-6.45,10.37A6.62,6.62,0,0,1,66.47,227a8.06,8.06,0,0,1-1.14.59l-.33.12,0,.36c0,.09.25,2.25,4,2.64a8.14,8.14,0,0,0,.88,0,15.65,15.65,0,0,0,4.74-.82c-.52.5-1.06,1-1.53,1.47l-.58.56.78.23a18.52,18.52,0,0,0,4.49.69c.51,0,1,0,1.55-.07a17.85,17.85,0,0,0,4.63-1.12l-.25.29-1.43,1.65-.59.69.9.09,2.18.21c.1,0,.48,0,1.07,0s1.23,0,1.86-.09a21.11,21.11,0,0,0,6.47-1.67l-.32.43-1.06,1.4-.43.59.7.15,1.73.39a15.93,15.93,0,0,0,3,.27c.52,0,1.06,0,1.57-.07a14.53,14.53,0,0,0,12.65-9.74,14.77,14.77,0,0,0,6.83,8,20.16,20.16,0,0,0,17.14,9.52h20.5c.12,11.82-4.79,22.85-5.89,26.13,17.18-7.85,25.8-18,30.14-26.13h36.88a20.19,20.19,0,0,0,20.19-20.19V164.38A20.19,20.19,0,0,0,217.68,144.19ZM85.58,50.71l-1-.15-.78.77-1.66-.49-.84-.25a14.44,14.44,0,0,1,6.12-2l.74,0a18.27,18.27,0,0,1,4.95.76A46.13,46.13,0,0,1,85.58,50.71Zm6.78,120.87-.14.77-.25.72c-.22.62-5.4,15.17-11.47,29.24a91.93,91.93,0,0,1-11.1-4.83,2.14,2.14,0,0,0,.42-.8,2.61,2.61,0,0,0-.41-2.32,2.28,2.28,0,0,0-.26-1.31l0-.05a2.2,2.2,0,0,0,0-.52c0-.09,0-.18,0-.24,0-1.33-1.23-1.76-1.82-2l-.06,0-.48-.12-.45-.11L66,189.9c-.29-.14-1.07-.51-1.12-.7h0c1.17-.76,2.29-1.62,2.36-2.92a1.5,1.5,0,0,0,0-.3,5.07,5.07,0,0,0,2.09-2.23,8.19,8.19,0,0,0,4.46-4.45,2.59,2.59,0,0,0,.14-.45l.16-.18.1-.14a3,3,0,0,0,2.16-1.31l.1-.12v0l0,0,.12-.21c.1-.17.17-.33.22-.43A6.2,6.2,0,0,0,81,175s3.82-2.82,4.6-3.55c.12.43,4.64-1.54,6.07-2.46l.82-.54.1.07A8.53,8.53,0,0,0,92.36,171.58Z"/></g><g id="Layer_3" data-name="Layer 3"><path class="cls-1" d="M217.27,145H135.64a20.19,20.19,0,0,0-20.19,20.19v59.25a20.19,20.19,0,0,0,20.19,20.19h20.51c.11,11.82-4.79,22.85-5.9,26.13,17.18-7.85,25.8-18,30.14-26.13h36.88a20.19,20.19,0,0,0,20.19-20.19V165.21A20.19,20.19,0,0,0,217.27,145Z"/><path class="cls-2" d="M157.22,181.25S155.65,163,176,163.2c18,.15,19.7,13,19.68,15.64-.14,16.63-13.41,10.31-13.52,23.47L171,202.22c.13-15.56,12.53-14.3,12.6-22.57,0-3.23-1.76-7.55-7.11-7.59-6.15-.05-8.67,4.8-8.71,9.28Z"/><rect class="cls-2" x="170.33" y="211.75" width="12.25" height="11.92" transform="translate(-42.71 392.34) rotate(-89.52)"/></g></g></g></svg>